<?xml version="1.0" encoding="utf-8"?>
<!-- Generator: Adobe Illustrator 24.1.1, SVG Export Plug-In . SVG Version: 6.00 Build 0)  -->
<svg version="1.1" id="Warstwa_1" xmlns="http://www.w3.org/2000/svg" xmlns:xlink="http://www.w3.org/1999/xlink" x="0px" y="0px"
	 viewBox="0 0 60 60" style="enable-background:new 0 0 60 60;" xml:space="preserve">
<g>
	<path style="fill:#FFFFFF;" d="M40.23,18.48H19.77c-0.37,0-0.67,0.31-0.67,0.67v2.86c0,0.37,0.31,0.67,0.67,0.67h20.46
		c0.37,0,0.67-0.31,0.67-0.67v-2.86C40.91,18.79,40.6,18.48,40.23,18.48z"/>
	<path style="fill:#FFFFFF;" d="M41.86,13.16H18.14c-1.52,0-2.76,1.24-2.76,2.76v29.32c0,1.52,1.24,2.76,2.76,2.76h23.71
		c1.52,0,2.76-1.24,2.76-2.76V15.92C44.61,14.4,43.38,13.16,41.86,13.16z M18.17,32.6c0.52-1.49,2.16-2.28,3.65-1.76
		c1.49,0.52,2.28,2.16,1.76,3.65c-0.52,1.49-2.16,2.28-3.65,1.76C18.44,35.73,17.65,34.09,18.17,32.6z M23.75,43.46
		c-0.52,1.49-2.16,2.28-3.65,1.76h0c-1.49-0.52-2.28-2.16-1.76-3.65c0.52-1.49,2.16-2.28,3.65-1.76
		C23.48,40.33,24.27,41.97,23.75,43.46z M33.06,43.29c-0.52,1.49-2.16,2.28-3.65,1.76c-1.49-0.52-2.28-2.16-1.76-3.65
		c0.52-1.49,2.16-2.28,3.65-1.76C32.79,40.17,33.58,41.81,33.06,43.29z M27.48,32.44c0.52-1.49,2.16-2.28,3.65-1.76
		c1.49,0.52,2.28,2.16,1.76,3.65c-0.52,1.49-2.16,2.28-3.65,1.76C27.75,35.57,26.96,33.93,27.48,32.44z M42,43.29
		c-0.52,1.49-2.16,2.28-3.65,1.76c-1.49-0.52-2.28-2.16-1.76-3.65c0.52-1.49,2.16-2.28,3.65-1.76h0
		C41.73,40.17,42.52,41.81,42,43.29z M36.42,32.44c0.52-1.49,2.16-2.28,3.65-1.76c1.49,0.52,2.28,2.16,1.76,3.65
		s-2.16,2.28-3.65,1.76C36.69,35.57,35.9,33.93,36.42,32.44z M43.07,22.02c0,1.56-1.27,2.83-2.83,2.83H19.77
		c-1.56,0-2.83-1.27-2.83-2.83v-2.86c0-1.56,1.27-2.83,2.83-2.83h20.46c1.56,0,2.83,1.27,2.83,2.83V22.02z"/>
	<path style="fill:#FFFFFF;" d="M30,0C13.43,0,0,13.43,0,30s13.43,30,30,30s30-13.43,30-30S46.57,0,30,0z M46.77,45.24
		c0,2.71-2.21,4.92-4.92,4.92H18.14c-2.71,0-4.92-2.21-4.92-4.92V15.92c0-2.71,2.21-4.92,4.92-4.92h23.71
		c2.71,0,4.92,2.21,4.92,4.92V45.24z"/>
</g>
</svg>
