<?xml version="1.0" encoding="utf-8"?>
<!-- Generator: Adobe Illustrator 24.1.1, SVG Export Plug-In . SVG Version: 6.00 Build 0)  -->
<svg version="1.1"  x="0px" y="0px" viewBox="0 0 60 60" style="enable-background:new 0 0 60 60;">
<circle class="st0" style="fill:#FFFFFF" cx="30" cy="30" r="30"/>
<path class="st1" style="fill:#6C5CE7" id="firstButton" d="M29.2,35.5c1.5,0.5,3.1-0.3,3.7-1.8s-0.3-3.1-1.8-3.6c-1.5-0.5-3.1,0.3-3.6,1.8C27,33.4,27.8,35,29.2,35.5z"/>
<path class="st1" style="fill:#6C5CE7" id="secondButton" d="M22,39.2c-1.5-0.5-3.1,0.3-3.6,1.8c-0.5,1.5,0.3,3.1,1.8,3.7c1.5,0.5,3.1-0.3,3.6-1.8
	C24.3,41.4,23.5,39.7,22,39.2z"/>
<path class="st1" style="fill:#6C5CE7" id="thirdButton" d="M40.2,39.1c-1.5-0.5-3.1,0.3-3.6,1.8c-0.5,1.5,0.3,3.1,1.8,3.7c1.5,0.5,3.1-0.3,3.6-1.8
	C42.5,41.2,41.7,39.6,40.2,39.1z"/>
<path class="st1" style="fill:#6C5CE7" d="M19.9,35.7c1.5,0.5,3.1-0.3,3.7-1.8s-0.3-3.1-1.8-3.7s-3.1,0.3-3.6,1.8C17.7,33.5,18.4,35.1,19.9,35.7z"/>
<path class="st1" style="fill:#6C5CE7" d="M31.3,39.1c-1.5-0.5-3.1,0.3-3.6,1.8s0.3,3.1,1.8,3.7c1.5,0.5,3.1-0.3,3.6-1.8C33.6,41.2,32.8,39.6,31.3,39.1z"
	/>
<path class="st1" style="fill:#6C5CE7" d="M16.9,18.6v2.9c0,1.6,1.3,2.8,2.8,2.8h20.5c1.6,0,2.8-1.3,2.8-2.8h0v-2.9c0-1.6-1.3-2.8-2.8-2.8H19.8
	C18.2,15.7,16.9,17,16.9,18.6z M19.1,18.6c0-0.4,0.3-0.7,0.7-0.7h20.5c0.4,0,0.7,0.3,0.7,0.7v2.9c0,0.4-0.3,0.7-0.7,0.7H19.8
	c-0.4,0-0.7-0.3-0.7-0.7V18.6z"/>
<path class="st1" d="M38.2,35.5c1.5,0.5,3.1-0.3,3.7-1.8s-0.3-3.1-1.8-3.6c-1.5-0.5-3.1,0.3-3.7,1.8C35.9,33.4,36.7,35,38.2,35.5z"
	/>
<path class="st1" style="fill:#6C5CE7" d="M18.1,10.4c-2.7,0-4.9,2.2-4.9,4.9v29.3c0,2.7,2.2,4.9,4.9,4.9h23.7c2.7,0,4.9-2.2,4.9-4.9V15.3
	c0-2.7-2.2-4.9-4.9-4.9H18.1z M44.6,15.3v29.3c0,1.5-1.2,2.8-2.8,2.8H18.1c-1.5,0-2.8-1.2-2.8-2.8V15.3c0-1.5,1.2-2.8,2.8-2.8h23.7
	C43.4,12.6,44.6,13.8,44.6,15.3z"/>
</svg>
