<?xml version="1.0" encoding="utf-8"?>
<!-- Generator: Adobe Illustrator 24.1.1, SVG Export Plug-In . SVG Version: 6.00 Build 0)  -->
<svg version="1.1" id="Warstwa_1" xmlns="http://www.w3.org/2000/svg" xmlns:xlink="http://www.w3.org/1999/xlink" x="0px" y="0px"
	 viewBox="0 0 60 60" style="enable-background:new 0 0 60 60;" xml:space="preserve">
<g>
	<rect x="37.8" y="18.65" style="fill:#FFFFFF;" width="4.26" height="4.22"/>
	<rect x="27.03" y="29.46" style="fill:#FFFFFF;" width="4.19" height="4.26"/>
	<rect x="27.03" y="24.03" style="fill:#FFFFFF;" width="4.19" height="4.26"/>
	<rect x="27.03" y="34.88" style="fill:#FFFFFF;" width="4.19" height="4.19"/>
	<rect x="32.38" y="34.88" style="fill:#FFFFFF;" width="4.26" height="4.19"/>
	<rect x="32.38" y="18.65" style="fill:#FFFFFF;" width="4.26" height="4.22"/>
	<rect x="20.92" y="34.88" style="fill:#FFFFFF;" width="4.94" height="4.19"/>
	<rect x="20.92" y="18.65" style="fill:#FFFFFF;" width="4.94" height="4.22"/>
	<rect x="37.8" y="34.88" style="fill:#FFFFFF;" width="4.26" height="4.19"/>
	<rect x="37.8" y="24.03" style="fill:#FFFFFF;" width="4.26" height="4.26"/>
	<rect x="32.38" y="29.46" style="fill:#FFFFFF;" width="4.26" height="4.26"/>
	<path style="fill:#FFFFFF;" d="M30,0.1c-16.56,0-30,13.44-30,30s13.44,30,30,30s30-13.44,30-30S46.57,0.1,30,0.1z M14.18,24.04
		c0.05,0.01,0.1,0.03,0.15,0.03l0,0l0,0h6.58v4.19h-6.58l0,0l0,0c-0.05,0-0.1,0.02-0.15,0.03V24.04z M20.92,43.78h-6.74v-3.55
		c0.05,0.01,0.1,0.03,0.15,0.03l0,0l0,0h6.58L20.92,43.78L20.92,43.78z M45.99,18.65h-2.75v4.22h2.82v1.17h-2.82v4.26h2.82v1.17
		h-2.82v4.26h2.82v1.17h-2.82v4.19h2.82v1.17h-2.82v3.55h-1.18v-3.55H37.8v3.55h-1.17v-3.55h-4.26v3.55h-1.17v-3.55h-4.19v3.55
		h-1.17v-3.55h-4.94v-1.14h-6.58l0,0l0,0c-0.05,0-0.1,0.02-0.15,0.03V34.8c0.05,0.01,0.1,0.03,0.15,0.03l0,0l0,0h6.58V33.7h4.94
		v-4.26h-4.94v4.22h-6.58l0,0l0,0c-0.05,0-0.1,0.02-0.15,0.03v-4.32c0.05,0.01,0.1,0.03,0.15,0.03l0,0l0,0h6.58v-1.14h4.94v-4.26
		h-4.94v-1.14h-6.58l0,0l0,0c-0.05,0-0.1,0.02-0.15,0.03v-4.87v-3.95v-0.4h11.68v4.93h1.17v-4.93h4.19v4.93h-4.19v4.22h4.19v-4.22
		h1.17v-4.93h4.26v4.93h1.17v-4.93h4.26v4.93h1.17v-4.93h3.33v4.29c0,0.02,0.01,0.04,0.01,0.06C46.56,18.39,46.31,18.65,45.99,18.65
		z"/>
	<rect x="32.38" y="24.03" style="fill:#FFFFFF;" width="4.26" height="4.26"/>
	<rect x="37.8" y="29.46" style="fill:#FFFFFF;" width="4.26" height="4.26"/>
</g>
</svg>
