<?xml version="1.0" encoding="utf-8"?>
<!-- Generator: Adobe Illustrator 24.1.1, SVG Export Plug-In . SVG Version: 6.00 Build 0)  -->
<svg version="1.1" id="Warstwa_1" xmlns="http://www.w3.org/2000/svg" xmlns:xlink="http://www.w3.org/1999/xlink" x="0px" y="0px"
	 viewBox="0 0 60 60" style="enable-background:new 0 0 60 60;" xml:space="preserve">
<g id="meal">
	<path style="fill:#FFFFFF;" d="M45.47,35.93c-0.5,0.08-1,0.09-1.49,0.06c-0.68-0.05-1.35-0.21-1.99-0.47
		c-1.51-0.62-2.68-1.74-3.37-3.11c-0.61-1.22-0.86-2.62-0.62-4.02l-0.16-0.09c-1.39-0.78-2.82-1.42-4.26-1.91s-2.84-0.84-4.17-1.01
		c-0.37-0.05-0.74-0.08-1.1-0.1l-0.28-0.01l-0.94,2c-0.2,0.43-0.59,0.71-1.03,0.77l-1.74,0.38c0.39,2.41,1.39,7.54,3.47,11.9
		c1.34,2.79,3.1,5.24,5.38,6.32c1.12,0.53,2.31,0.71,3.56,0.53c1.33-0.19,2.74-0.76,4.24-1.71c2.34-1.5,3.67-3.02,4.36-4.45
		c0.85-1.76,0.69-3.44,0.25-4.75L45.47,35.93z M41.09,42.68c-0.74,0.5-1.49,0.86-2.25,1.05c-0.8,0.2-1.61,0.24-2.43,0.11
		c-1.55-0.26-3.02-0.94-4.37-2.03c-1.28-1.04-2.45-2.46-3.5-4.26c-0.38-0.65-0.16-1.48,0.48-1.85c0.65-0.38,1.48-0.16,1.85,0.48
		c0.88,1.5,1.84,2.68,2.88,3.52c0.98,0.8,2.01,1.29,3.11,1.47c0.45,0.07,0.89,0.05,1.33-0.06c0.46-0.12,0.93-0.34,1.39-0.66
		c0.62-0.42,1.46-0.26,1.87,0.36C41.87,41.42,41.71,42.26,41.09,42.68z"/>
	<path style="fill:#FFFFFF;" d="M25.61,24.09l-2.54-2.93c-0.39-0.42-0.49-1.05-0.2-1.57c0.3-0.55,0.77-1.52,0.96-2.52
		c0.11-0.56,0.13-1.12-0.04-1.57c-0.08-0.22-0.2-0.41-0.37-0.56c-0.18-0.17-0.42-0.3-0.7-0.4c-0.12-0.04-0.22-0.07-0.29-0.09l0,0
		c-0.06-0.01-0.15-0.03-0.25-0.04c-0.23-0.03-0.43-0.02-0.58,0.02c-0.17,0.04-0.31,0.12-0.42,0.19c-0.24,0.18-0.42,0.45-0.56,0.75
		c-0.23,0.5-0.34,1.08-0.39,1.53l-0.03,0.18c-0.18,0.73-0.91,1.17-1.63,1c-0.37-0.09-0.84-0.17-1.34-0.17H17.2
		c-0.46,0.01-0.92,0.08-1.32,0.29c-0.28,0.15-0.51,0.35-0.7,0.61c-0.21,0.29-0.36,0.65-0.46,1.08c-0.09,0.4-0.07,0.7,0,0.93
		c0.05,0.16,0.12,0.28,0.2,0.38l0.04,0.04c0.42,0.44,1.23,0.63,2.03,0.7c0.97,0.08,1.92-0.01,2.47-0.09
		c0.47-0.06,0.96,0.12,1.26,0.53l2.65,3.5l1.56-0.33L25.61,24.09z M18.07,20.87c-0.14,0.01-0.3,0.05-0.47,0.08
		c-0.66,0.12-1.36,0.25-1.72-0.26c-0.11-0.15-0.16-0.33-0.16-0.52c0-0.22,0.08-0.45,0.2-0.66c0.11-0.19,0.28-0.38,0.47-0.51
		c0.21-0.16,0.47-0.26,0.74-0.25c0.25,0,0.45,0.21,0.44,0.46c0,0.25-0.21,0.45-0.46,0.44c-0.06,0-0.13,0.03-0.2,0.08
		c-0.08,0.06-0.16,0.15-0.21,0.24c-0.04,0.07-0.07,0.14-0.07,0.19c0.09,0.02,0.46-0.05,0.81-0.11c0.19-0.04,0.38-0.07,0.55-0.09
		c0.25-0.03,0.47,0.16,0.5,0.4C18.5,20.62,18.32,20.85,18.07,20.87z"/>
	<path style="fill:#FFFFFF;" d="M30,0C13.44,0,0,13.44,0,30s13.44,30,30,30s30-13.44,30-30S46.57,0,30,0z M47.77,42.18
		c-0.89,1.84-2.53,3.76-5.33,5.56c-1.82,1.18-3.61,1.88-5.32,2.12c-1.78,0.25-3.49,0-5.09-0.76c-2.94-1.39-5.1-4.32-6.68-7.6
		c-2.56-5.36-3.59-11.77-3.84-13.6l-2.47-3.27c-0.64,0.06-1.45,0.08-2.26,0.01c-1.38-0.12-2.8-0.52-3.76-1.51l-0.09-0.11
		c-0.31-0.35-0.62-0.82-0.8-1.41c-0.19-0.63-0.25-1.39-0.04-2.31c0.18-0.8,0.48-1.48,0.89-2.05c0.44-0.61,1-1.09,1.66-1.44
		c0.83-0.43,1.7-0.58,2.53-0.59h0.06c0.2,0,0.39,0.01,0.59,0.03c0.09-0.33,0.21-0.66,0.35-0.98c0.31-0.68,0.76-1.32,1.4-1.79
		c0.35-0.26,0.82-0.52,1.41-0.66c0.45-0.11,0.98-0.15,1.55-0.08c0.14,0.02,0.31,0.05,0.51,0.1h0.02c0.19,0.05,0.36,0.09,0.51,0.14
		l0,0c0.66,0.22,1.23,0.56,1.69,0.99c0.48,0.45,0.85,1,1.07,1.62c0.35,0.98,0.34,2.02,0.15,3.02c-0.18,0.91-0.5,1.77-0.81,2.44
		l2.2,2.53c0.2,0,0.4,0.01,0.6,0.02c0.42,0.02,0.86,0.06,1.3,0.12c1.5,0.19,3.09,0.58,4.69,1.13c1.57,0.55,3.16,1.26,4.69,2.11
		l0.69,0.4c0.4,0.24,0.67,0.55,0.83,0.96c0.12,0.32,0.15,0.65,0.11,1c-0.01,0.07-0.02,0.15-0.04,0.22c-0.24,0.94-0.11,1.88,0.3,2.68
		c0.41,0.8,1.09,1.46,1.97,1.82c0.38,0.15,0.77,0.24,1.17,0.27c0.4,0.03,0.81,0,1.2-0.1l0.16-0.03c0.44-0.08,0.83,0,1.16,0.15
		c0.55,0.25,0.88,0.73,1,0.96c0.09,0.19,0.18,0.39,0.26,0.59c0.08,0.19,0.14,0.37,0.2,0.54C48.77,37.26,48.99,39.64,47.77,42.18z"/>
</g>
</svg>
