<?xml version="1.0" encoding="utf-8"?>
<!-- Generator: Adobe Illustrator 24.1.1, SVG Export Plug-In . SVG Version: 6.00 Build 0)  -->
<svg version="1.1" id="Warstwa_1" xmlns="http://www.w3.org/2000/svg" xmlns:xlink="http://www.w3.org/1999/xlink" x="0px" y="0px"
	 viewBox="0 0 60 60" style="enable-background:new 0 0 60 60;" xml:space="preserve">
<g>
	<path style="fill:#FFFFFF;" d="M36.63,13.96c-2.35,0-4.26,1.91-4.26,4.26c0,2.35,1.91,4.26,4.26,4.26c2.35,0,4.26-1.91,4.26-4.26
		C40.89,15.87,38.98,13.96,36.63,13.96z M36.63,19.6c-0.75,0-1.36-0.61-1.36-1.36c0-0.75,0.61-1.36,1.36-1.36s1.36,0.61,1.36,1.36
		C37.99,18.99,37.38,19.6,36.63,19.6z"/>
	<path style="fill:#FFFFFF;" d="M30.13,0.18c-16.57,0-30,13.43-30,30s13.43,30,30,30s30-13.43,30-30S46.7,0.18,30.13,0.18z
		 M41.08,37.18c0,0.61-0.5,1.11-1.11,1.11h-0.94c-0.23,0.86-0.56,1.68-0.98,2.45l0.72,0.72c0.43,0.43,0.43,1.14,0,1.58l-2.55,2.55
		c-0.43,0.43-1.14,0.43-1.58,0l-0.68-0.68c-0.77,0.44-1.6,0.79-2.47,1.04v1.03c0,0.61-0.5,1.11-1.11,1.11h-3.6
		c-0.61,0-1.11-0.5-1.11-1.11v-1.03c-0.84-0.24-1.64-0.57-2.38-0.99l-0.7,0.7c-0.43,0.43-1.14,0.43-1.58,0l-2.55-2.55
		c-0.43-0.43-0.43-1.14,0-1.58l0.7-0.7c-0.45-0.79-0.8-1.64-1.03-2.54h-0.94c-0.61,0-1.11-0.5-1.11-1.11v-3.6
		c0-0.61,0.5-1.11,1.11-1.11h1.03c0.24-0.81,0.58-1.59,0.99-2.31l-0.68-0.68c-0.43-0.43-0.43-1.14,0-1.58l2.55-2.55
		c0.43-0.43,1.14-0.43,1.58,0l0.72,0.72c0.72-0.4,1.48-0.71,2.29-0.94v-0.95c0-0.61,0.5-1.11,1.11-1.11h3.6
		c0.61,0,1.11,0.5,1.11,1.11v0.95c0.84,0.24,1.64,0.57,2.38,0.99l0.7-0.7c0.43-0.43,1.14-0.43,1.58,0l2.55,2.55
		c0.43,0.43,0.43,1.14,0,1.58l-0.7,0.7c0.39,0.7,0.71,1.44,0.94,2.22h1.03c0.61,0,1.11,0.5,1.11,1.11V37.18z M42.59,19
		c0,0.29-0.24,0.53-0.53,0.53h-0.45c-0.11,0.41-0.27,0.8-0.47,1.17l0.34,0.34c0.21,0.21,0.21,0.54,0,0.75L40.27,23
		c-0.21,0.21-0.54,0.21-0.75,0l-0.32-0.32c-0.37,0.21-0.76,0.38-1.18,0.5v0.49c0,0.29-0.24,0.53-0.53,0.53h-1.72
		c-0.29,0-0.53-0.24-0.53-0.53v-0.49c-0.4-0.11-0.78-0.27-1.13-0.47l-0.33,0.33c-0.21,0.21-0.54,0.21-0.75,0l-1.21-1.21
		c-0.21-0.21-0.21-0.54,0-0.75l0.33-0.33c-0.21-0.38-0.38-0.78-0.49-1.21H31.2c-0.29,0-0.53-0.24-0.53-0.53v-1.72
		c0-0.29,0.24-0.53,0.53-0.53h0.49c0.12-0.39,0.28-0.76,0.47-1.1l-0.32-0.32c-0.21-0.21-0.21-0.54,0-0.75l1.21-1.21
		c0.21-0.21,0.54-0.21,0.75,0l0.34,0.34c0.34-0.19,0.71-0.34,1.09-0.45V12.8c0-0.29,0.24-0.53,0.53-0.53h1.72
		c0.29,0,0.53,0.24,0.53,0.53v0.45c0.4,0.11,0.78,0.27,1.13,0.47l0.33-0.33c0.21-0.21,0.54-0.21,0.75,0l1.21,1.21
		c0.21,0.21,0.21,0.54,0,0.75l-0.33,0.33c0.19,0.33,0.34,0.69,0.45,1.06h0.49c0.29,0,0.53,0.24,0.53,0.53V19z"/>
	<path style="fill:#FFFFFF;" d="M28.58,26.61c-4.93,0-8.93,4.01-8.93,8.93c0,4.93,4.01,8.93,8.93,8.93c4.93,0,8.93-4.01,8.93-8.93
		C37.51,30.61,33.5,26.61,28.58,26.61z M28.58,38.44c-1.58,0-2.86-1.28-2.86-2.86s1.28-2.86,2.86-2.86s2.86,1.28,2.86,2.86
		S30.16,38.44,28.58,38.44z"/>
</g>
</svg>
