<?xml version="1.0" encoding="utf-8"?>
<!-- Generator: Adobe Illustrator 24.1.1, SVG Export Plug-In . SVG Version: 6.00 Build 0)  -->
<svg version="1.1" x="0px" y="0px" viewBox="0 0 60 60" style="enable-background:new 0 0 60 60;">
<circle class="st0" style="fill:#FFFFFF;" cx="30" cy="30" r="30"/>
<g>
	<path class="st1" style="fill:#6C5CE7;" id="firstGear" d="M42,18.2c0.3,0,0.5-0.2,0.5-0.5h0V16c0-0.3-0.2-0.5-0.5-0.5h-0.5c-0.1-0.4-0.3-0.7-0.4-1.1l0.3-0.3
		c0.2-0.2,0.2-0.5,0-0.8l-1.2-1.2c-0.2-0.2-0.5-0.2-0.8,0l-0.3,0.3c-0.3-0.2-0.7-0.4-1.1-0.5v-0.4c0-0.3-0.2-0.5-0.5-0.5h-1.7
		c-0.3,0-0.5,0.2-0.5,0.5V12c-0.4,0.1-0.8,0.3-1.1,0.5l-0.3-0.3c-0.2-0.2-0.5-0.2-0.8,0l-1.2,1.2c-0.2,0.2-0.2,0.5,0,0.8l0.3,0.3
		c-0.2,0.3-0.4,0.7-0.5,1.1h-0.5c-0.3,0-0.5,0.2-0.5,0.5v1.7c0,0.3,0.2,0.5,0.5,0.5h0.5c0.1,0.4,0.3,0.8,0.5,1.2l-0.3,0.3
		c-0.2,0.2-0.2,0.5,0,0.8l1.2,1.2c0.2,0.2,0.5,0.2,0.8,0l0.3-0.3c0.4,0.2,0.7,0.4,1.1,0.5v0.5c0,0.3,0.2,0.5,0.5,0.5h1.7
		c0.3,0,0.5-0.2,0.5-0.5v-0.5c0.4-0.1,0.8-0.3,1.2-0.5l0.3,0.3c0.2,0.2,0.5,0.2,0.8,0l1.2-1.2c0.2-0.2,0.2-0.5,0-0.8l-0.3-0.3
		c0.2-0.4,0.4-0.8,0.5-1.2H42z M36.6,21.2c-2.3,0-4.3-1.9-4.3-4.3c0-2.4,1.9-4.3,4.3-4.3c2.4,0,4.3,1.9,4.3,4.3
		C40.9,19.3,39,21.2,36.6,21.2z"/>
	<path class="st1" style="fill:#6C5CE7;"  d="M36.6,15.6c-0.8,0-1.4,0.6-1.4,1.4s0.6,1.4,1.4,1.4s1.4-0.6,1.4-1.4S37.4,15.6,36.6,15.6z"/>
	<path class="st1" style="fill:#6C5CE7;" id="secondGear" d="M39.9,37c0.6,0,1.1-0.5,1.1-1.1v-3.6c0-0.6-0.5-1.1-1.1-1.1h-1c-0.2-0.8-0.5-1.5-0.9-2.2l0.7-0.7
		c0.4-0.4,0.4-1.2,0-1.6l-2.5-2.5c-0.4-0.4-1.2-0.4-1.6,0l-0.7,0.7c-0.7-0.4-1.5-0.8-2.4-1v-1c0-0.6-0.5-1.1-1.1-1.1h-3.6
		c-0.6,0-1.1,0.5-1.1,1.1v1c-0.8,0.2-1.6,0.5-2.3,0.9L22.6,24c-0.4-0.4-1.2-0.4-1.6,0l-2.5,2.5c-0.4,0.4-0.4,1.2,0,1.6l0.7,0.7
		c-0.4,0.7-0.8,1.5-1,2.3h-1c-0.6,0-1.1,0.5-1.1,1.1v3.6c0,0.6,0.5,1.1,1.1,1.1h0.9c0.2,0.9,0.6,1.8,1,2.5l-0.7,0.7
		c-0.4,0.4-0.4,1.2,0,1.6l2.5,2.5c0.4,0.4,1.2,0.4,1.6,0l0.7-0.7c0.7,0.4,1.5,0.8,2.4,1v1c0,0.6,0.5,1.1,1.1,1.1h3.6
		c0.6,0,1.1-0.5,1.1-1.1v-1c0.9-0.3,1.7-0.6,2.5-1l0.7,0.7c0.4,0.4,1.2,0.4,1.6,0l2.5-2.5c0.4-0.4,0.4-1.2,0-1.6L38,39.4
		c0.4-0.8,0.8-1.6,1-2.5H39.9z M28.6,43.2c-4.9,0-8.9-4-8.9-8.9c0-4.9,4-8.9,8.9-8.9c4.9,0,8.9,4,8.9,8.9
		C37.5,39.2,33.5,43.2,28.6,43.2z"/>
	<circle class="st1" style="fill:#6C5CE7;" cx="28.6" cy="34.3" r="2.9"/>
</g>
</svg>
