<?xml version="1.0" encoding="utf-8"?>
<!-- Generator: Adobe Illustrator 24.1.1, SVG Export Plug-In . SVG Version: 6.00 Build 0)  -->
<svg version="1.1" x="0px" y="0px" viewBox="0 0 60 60" style="enable-background:new 0 0 60 60;">
<circle class="st0" style="fill:#FFFFFF;" cx="30.1" cy="30.1" r="30"/>
<g>
	<path class="st1" style="fill:#6C5CE7;" id="arrow" d="M48.8,28.5l-4.2-2.4l-4.2-2.4c-0.6-0.3-1.3,0.1-1.3,0.8v2.3H25.2c-1.3,0-2.4,1.1-2.4,2.4s1.1,2.4,2.4,2.4H39
		v2.6c0,0.7,0.7,1.1,1.3,0.8l4.2-2.4l4.2-2.4C49.3,29.7,49.3,28.9,48.8,28.5z"/>
	<path class="st1" style="fill:#6C5CE7;" d="M22.3,47.5h12.2c3.2,0,5.7-2.6,5.7-5.8h-2.4c0,1.9-1.5,3.4-3.4,3.4H22.3c-1.9,0-3.4-1.5-3.4-3.4V16.9
		c0-1.9,1.5-3.4,3.4-3.4h12.2c1.8,0,3.4,1.5,3.4,3.4h2.4c0-3.2-2.6-5.7-5.7-5.7H22.3c-3.2,0-5.7,2.6-5.7,5.7v24.9
		C16.6,45,19.1,47.5,22.3,47.5z"/>
</g>
</svg>
