<?xml version="1.0" encoding="utf-8"?>
<!-- Generator: Adobe Illustrator 24.1.1, SVG Export Plug-In . SVG Version: 6.00 Build 0)  -->
<svg version="1.1" id="Warstwa_1" xmlns="http://www.w3.org/2000/svg" xmlns:xlink="http://www.w3.org/1999/xlink" x="0px" y="0px"
	 viewBox="0 0 60 60" style="enable-background:new 0 0 60 60;" xml:space="preserve">
<path style="fill:#FFFFFF;" d="M30,0C13.38,0-0.1,13.48-0.1,30.1S13.38,60.2,30,60.2s30.1-13.48,30.1-30.1S46.62,0,30,0z
	 M35.33,48.3H23.1c-3.17,0-5.74-2.58-5.74-5.74V17.64c0-3.17,2.58-5.74,5.74-5.74h12.23c3.17,0,5.74,2.58,5.74,5.74h-2.38
	c0-1.85-1.51-3.36-3.36-3.36H23.1c-1.85,0-3.36,1.51-3.36,3.36v24.91c0,1.85,1.51,3.36,3.36,3.36h12.23c1.85,0,3.36-1.51,3.36-3.36
	h2.38C41.07,45.72,38.49,48.3,35.33,48.3z M49.54,30.81l-4.2,2.42l-4.2,2.42c-0.58,0.34-1.31-0.08-1.31-0.76V32.3H25.96
	c-1.31,0-2.38-1.07-2.38-2.38c0-1.31,1.07-2.38,2.38-2.38h13.87v-2.33c0-0.67,0.73-1.09,1.31-0.76l4.2,2.42l4.2,2.42
	C50.12,29.64,50.12,30.48,49.54,30.81z"/>
</svg>
